PERFORMER "Paolo Mojo"
TITLE "Essential Mix (2008-08-16) [TMB]"
FILE "Essential Mix_Paolo Mojo_2008_08_16.mp3" MP3
  TRACK 01 AUDIO
    PERFORMER "Essential Mix"
    TITLE "Intro"
    INDEX 01 00:00:00
  TRACK 02 AUDIO
    PERFORMER "Paolo Mojo"
    TITLE "Tribute (18 Posse Remake)"
    INDEX 01 02:45:67
  TRACK 03 AUDIO
    PERFORMER "Darko Esser & Benny Rodriguez"
    TITLE "Slaapgebrek (Laboratoire Subtile Mix)"
    INDEX 01 08:41:72
  TRACK 04 AUDIO
    PERFORMER "ID"
    TITLE "ID"
    INDEX 01 13:04:00
  TRACK 05 AUDIO
    PERFORMER "Gui Boratto"
    TITLE "Haute Couture"
    INDEX 01 17:26:02
  TRACK 06 AUDIO
    PERFORMER "Radio Slave"
    TITLE "Incognito"
    INDEX 01 22:18:02
  TRACK 07 AUDIO
    PERFORMER "Stimming"
    TITLE "Una Pena"
    INDEX 01 26:38:65
  TRACK 08 AUDIO
    PERFORMER "Matthias Meyer"
    TITLE "Tout Va Bien"
    INDEX 01 31:04:70
  TRACK 09 AUDIO
    PERFORMER "Josh Wink"
    TITLE "Stay Out All Night (PM's Organ Edit)"
    INDEX 01 35:57:19
  TRACK 10 AUDIO
    PERFORMER "Paolo Mojo"
    TITLE "Alininha"
    INDEX 01 41:10:01
  TRACK 11 AUDIO
    PERFORMER "Deetron feat. Justin Chapman"
    TITLE "Let's Get Over It"
    INDEX 01 48:31:25
  TRACK 12 AUDIO
    PERFORMER "Paolo Mojo"
    TITLE "Brooks Theme"
    INDEX 01 52:34:19
  TRACK 13 AUDIO
    PERFORMER "Henry Saiz"
    TITLE "Hello, Infinite"
    INDEX 01 59:00:47
  TRACK 14 AUDIO
    PERFORMER "The Ananda Project feat. Gaelle Adisson"
    TITLE "Cascades Of Colour (Paolo Mojo Ambient Tool)"
    INDEX 01 61:54:43
  TRACK 15 AUDIO
    PERFORMER "Texi vs. Moonface"
    TITLE "Texi vs. U Get So Give (Paolo Mojo Getapella Intro Mix)"
    INDEX 01 64:40:54
  TRACK 16 AUDIO
    PERFORMER "Pryda"
    TITLE "Rafunk (Paolo Mojo's Back To 1983 Edit)"
    INDEX 01 71:12:60
  TRACK 17 AUDIO
    PERFORMER "Sébastien Léger"
    TITLE "Bambou"
    INDEX 01 77:10:02
  TRACK 18 AUDIO
    PERFORMER "Paolo Mojo & Jim Rivers"
    TITLE "Ron Hardy Said (Eric Prydz Remix)"
    INDEX 01 80:10:17
  TRACK 19 AUDIO
    PERFORMER "Andy Chatterley"
    TITLE "Jets"
    INDEX 01 86:15:40
  TRACK 20 AUDIO
    PERFORMER "Paolo Mojo"
    TITLE "The Dancer"
    INDEX 01 90:27:69
  TRACK 21 AUDIO
    PERFORMER "D*Note"
    TITLE "The Garden Of Earthly Delights (X-Press 2 Inner London Ambience)"
    INDEX 01 98:10:38
  TRACK 22 AUDIO
    PERFORMER "Paolo Mojo vs. LSL feat. Natasha Low"
    TITLE "Interstellar vs. I Can See Stars (Acapella)"
    INDEX 01 100:11:73
  TRACK 23 AUDIO
    PERFORMER "Betoko vs. Sterling Void"
    TITLE "Voyager It's Alright (Paolo Mojo Mashup)"
    INDEX 01 105:23:60
  TRACK 24 AUDIO
    PERFORMER "Paolo Mojo"
    TITLE "Nightlaw (Essential Intro Mix)"
    INDEX 01 112:46:40